<mxfile host="app.diagrams.net" agent="Mozilla/5.0 (Windows NT 10.0; Win64; x64) AppleWebKit/537.36 (KHTML, like Gecko) Chrome/129.0.0.0 Safari/537.36" version="24.7.17">
  <diagram name="Page-1" id="e5yxuhi-PAUHu0ApAYGd">
    <mxGraphModel dx="4075" dy="2493" grid="1" gridSize="10" guides="1" tooltips="1" connect="1" arrows="1" fold="1" page="1" pageScale="1" pageWidth="850" pageHeight="1100" math="0" shadow="0">
      <root>
        <mxCell id="0" />
        <mxCell id="1" parent="0" />
        <mxCell id="IT1GfO3hqT7uD5s0gZy_-49" style="edgeStyle=orthogonalEdgeStyle;rounded=0;orthogonalLoop=1;jettySize=auto;html=1;entryX=0.5;entryY=0;entryDx=0;entryDy=0;" parent="1" source="IT1GfO3hqT7uD5s0gZy_-4" target="IT1GfO3hqT7uD5s0gZy_-47" edge="1">
          <mxGeometry relative="1" as="geometry" />
        </mxCell>
        <mxCell id="IT1GfO3hqT7uD5s0gZy_-4" value="Start" style="strokeWidth=2;html=1;shape=mxgraph.flowchart.start_1;whiteSpace=wrap;" parent="1" vertex="1">
          <mxGeometry x="-53.5" width="60" height="40" as="geometry" />
        </mxCell>
        <mxCell id="IT1GfO3hqT7uD5s0gZy_-12" value="" style="edgeStyle=orthogonalEdgeStyle;rounded=0;orthogonalLoop=1;jettySize=auto;html=1;" parent="1" source="IT1GfO3hqT7uD5s0gZy_-5" target="IT1GfO3hqT7uD5s0gZy_-6" edge="1">
          <mxGeometry relative="1" as="geometry" />
        </mxCell>
        <mxCell id="IT1GfO3hqT7uD5s0gZy_-5" value="Welcome to&amp;nbsp;&lt;div&gt;Study Helper&lt;/div&gt;" style="strokeWidth=2;html=1;shape=mxgraph.flowchart.display;whiteSpace=wrap;" parent="1" vertex="1">
          <mxGeometry x="-78.5" y="170" width="110" height="60" as="geometry" />
        </mxCell>
        <mxCell id="IT1GfO3hqT7uD5s0gZy_-6" value="Task or Note" style="strokeWidth=2;html=1;shape=mxgraph.flowchart.decision;whiteSpace=wrap;" parent="1" vertex="1">
          <mxGeometry x="-98.5" y="270" width="150" height="100" as="geometry" />
        </mxCell>
        <mxCell id="IT1GfO3hqT7uD5s0gZy_-7" value="" style="endArrow=none;html=1;rounded=0;entryX=0;entryY=0.5;entryDx=0;entryDy=0;entryPerimeter=0;" parent="1" target="IT1GfO3hqT7uD5s0gZy_-6" edge="1">
          <mxGeometry width="50" height="50" relative="1" as="geometry">
            <mxPoint x="-193.5" y="320" as="sourcePoint" />
            <mxPoint x="-93.5" y="330" as="targetPoint" />
          </mxGeometry>
        </mxCell>
        <mxCell id="IT1GfO3hqT7uD5s0gZy_-45" style="edgeStyle=orthogonalEdgeStyle;rounded=0;orthogonalLoop=1;jettySize=auto;html=1;entryX=0.5;entryY=0;entryDx=0;entryDy=0;" parent="1" source="IT1GfO3hqT7uD5s0gZy_-13" target="IT1GfO3hqT7uD5s0gZy_-14" edge="1">
          <mxGeometry relative="1" as="geometry" />
        </mxCell>
        <mxCell id="IT1GfO3hqT7uD5s0gZy_-13" value="&lt;div&gt;&lt;br&gt;&lt;/div&gt;&quot;Add Task form&quot;&lt;div&gt;Get Task name, Task Description, Due date, Priority&lt;/div&gt;" style="html=1;strokeWidth=2;shape=manualInput;whiteSpace=wrap;rounded=1;size=26;arcSize=11;" parent="1" vertex="1">
          <mxGeometry x="40" y="950" width="190" height="85" as="geometry" />
        </mxCell>
        <mxCell id="IT1GfO3hqT7uD5s0gZy_-46" style="edgeStyle=orthogonalEdgeStyle;rounded=0;orthogonalLoop=1;jettySize=auto;html=1;entryX=0.5;entryY=0;entryDx=0;entryDy=0;" parent="1" source="IT1GfO3hqT7uD5s0gZy_-14" target="IT1GfO3hqT7uD5s0gZy_-18" edge="1">
          <mxGeometry relative="1" as="geometry" />
        </mxCell>
        <mxCell id="IT1GfO3hqT7uD5s0gZy_-14" value="User submit form&lt;div&gt;Post request&lt;/div&gt;" style="rounded=1;whiteSpace=wrap;html=1;absoluteArcSize=1;arcSize=14;strokeWidth=2;" parent="1" vertex="1">
          <mxGeometry x="80" y="1070" width="110" height="50" as="geometry" />
        </mxCell>
        <mxCell id="IT1GfO3hqT7uD5s0gZy_-136" style="edgeStyle=orthogonalEdgeStyle;rounded=0;orthogonalLoop=1;jettySize=auto;html=1;entryX=0;entryY=0.5;entryDx=0;entryDy=0;" parent="1" source="IT1GfO3hqT7uD5s0gZy_-15" target="IT1GfO3hqT7uD5s0gZy_-13" edge="1">
          <mxGeometry relative="1" as="geometry" />
        </mxCell>
        <mxCell id="IT1GfO3hqT7uD5s0gZy_-15" value="Task Management UI&lt;div&gt;HTML&lt;/div&gt;" style="strokeWidth=2;html=1;shape=mxgraph.flowchart.display;whiteSpace=wrap;" parent="1" vertex="1">
          <mxGeometry x="-160" y="962.5" width="150" height="60" as="geometry" />
        </mxCell>
        <mxCell id="IT1GfO3hqT7uD5s0gZy_-134" value="" style="edgeStyle=orthogonalEdgeStyle;rounded=0;orthogonalLoop=1;jettySize=auto;html=1;" parent="1" source="IT1GfO3hqT7uD5s0gZy_-16" target="IT1GfO3hqT7uD5s0gZy_-15" edge="1">
          <mxGeometry relative="1" as="geometry" />
        </mxCell>
        <mxCell id="IT1GfO3hqT7uD5s0gZy_-16" value="&lt;div&gt;User access&lt;/div&gt;Get Request /tasks" style="rounded=1;whiteSpace=wrap;html=1;absoluteArcSize=1;arcSize=14;strokeWidth=2;" parent="1" vertex="1">
          <mxGeometry x="-340" y="967.5" width="120" height="50" as="geometry" />
        </mxCell>
        <mxCell id="IT1GfO3hqT7uD5s0gZy_-51" style="edgeStyle=orthogonalEdgeStyle;rounded=0;orthogonalLoop=1;jettySize=auto;html=1;" parent="1" source="IT1GfO3hqT7uD5s0gZy_-18" target="IT1GfO3hqT7uD5s0gZy_-19" edge="1">
          <mxGeometry relative="1" as="geometry" />
        </mxCell>
        <mxCell id="IT1GfO3hqT7uD5s0gZy_-18" value="Validate form input" style="rounded=1;whiteSpace=wrap;html=1;absoluteArcSize=1;arcSize=14;strokeWidth=2;" parent="1" vertex="1">
          <mxGeometry x="77.5" y="1150" width="115" height="40" as="geometry" />
        </mxCell>
        <mxCell id="IT1GfO3hqT7uD5s0gZy_-19" value="If all input are filled" style="strokeWidth=2;html=1;shape=mxgraph.flowchart.decision;whiteSpace=wrap;" parent="1" vertex="1">
          <mxGeometry x="67.5" y="1240" width="135" height="70" as="geometry" />
        </mxCell>
        <mxCell id="klHNiH37RLpIYKjmGFhw-3" style="edgeStyle=orthogonalEdgeStyle;rounded=0;orthogonalLoop=1;jettySize=auto;html=1;entryX=0.5;entryY=0;entryDx=0;entryDy=0;" parent="1" source="IT1GfO3hqT7uD5s0gZy_-25" target="klHNiH37RLpIYKjmGFhw-2" edge="1">
          <mxGeometry relative="1" as="geometry" />
        </mxCell>
        <mxCell id="IT1GfO3hqT7uD5s0gZy_-25" value="" style="verticalLabelPosition=bottom;verticalAlign=top;html=1;shape=mxgraph.flowchart.on-page_reference;" parent="1" vertex="1">
          <mxGeometry x="-33.5" y="500" width="20" height="20" as="geometry" />
        </mxCell>
        <mxCell id="IT1GfO3hqT7uD5s0gZy_-26" value="Go to Task Management page" style="rounded=1;whiteSpace=wrap;html=1;absoluteArcSize=1;arcSize=14;strokeWidth=2;" parent="1" vertex="1">
          <mxGeometry x="-283.5" y="400" width="180" height="40" as="geometry" />
        </mxCell>
        <mxCell id="IT1GfO3hqT7uD5s0gZy_-27" value="Go to Notes Management page" style="rounded=1;whiteSpace=wrap;html=1;absoluteArcSize=1;arcSize=14;strokeWidth=2;" parent="1" vertex="1">
          <mxGeometry x="56.5" y="400" width="180" height="40" as="geometry" />
        </mxCell>
        <mxCell id="IT1GfO3hqT7uD5s0gZy_-28" value="End" style="strokeWidth=2;html=1;shape=mxgraph.flowchart.start_1;whiteSpace=wrap;" parent="1" vertex="1">
          <mxGeometry x="-54.129999999999995" y="750" width="60" height="40" as="geometry" />
        </mxCell>
        <mxCell id="IT1GfO3hqT7uD5s0gZy_-30" value="" style="endArrow=classic;html=1;rounded=0;entryX=0.5;entryY=0;entryDx=0;entryDy=0;" parent="1" target="IT1GfO3hqT7uD5s0gZy_-26" edge="1">
          <mxGeometry width="50" height="50" relative="1" as="geometry">
            <mxPoint x="-193.5" y="320" as="sourcePoint" />
            <mxPoint x="106.5" y="430" as="targetPoint" />
          </mxGeometry>
        </mxCell>
        <mxCell id="IT1GfO3hqT7uD5s0gZy_-31" value="" style="endArrow=classic;html=1;rounded=0;" parent="1" target="IT1GfO3hqT7uD5s0gZy_-27" edge="1">
          <mxGeometry width="50" height="50" relative="1" as="geometry">
            <mxPoint x="146.5" y="320" as="sourcePoint" />
            <mxPoint x="106.5" y="430" as="targetPoint" />
          </mxGeometry>
        </mxCell>
        <mxCell id="IT1GfO3hqT7uD5s0gZy_-32" value="" style="endArrow=none;html=1;rounded=0;entryX=1;entryY=0.5;entryDx=0;entryDy=0;entryPerimeter=0;" parent="1" target="IT1GfO3hqT7uD5s0gZy_-6" edge="1">
          <mxGeometry width="50" height="50" relative="1" as="geometry">
            <mxPoint x="146.5" y="320" as="sourcePoint" />
            <mxPoint x="106.5" y="430" as="targetPoint" />
          </mxGeometry>
        </mxCell>
        <mxCell id="IT1GfO3hqT7uD5s0gZy_-35" value="" style="endArrow=none;html=1;rounded=0;entryX=0.5;entryY=1;entryDx=0;entryDy=0;" parent="1" target="IT1GfO3hqT7uD5s0gZy_-26" edge="1">
          <mxGeometry width="50" height="50" relative="1" as="geometry">
            <mxPoint x="-193.5" y="510" as="sourcePoint" />
            <mxPoint x="46.5" y="490" as="targetPoint" />
          </mxGeometry>
        </mxCell>
        <mxCell id="IT1GfO3hqT7uD5s0gZy_-36" value="" style="endArrow=none;html=1;rounded=0;entryX=0.5;entryY=1;entryDx=0;entryDy=0;" parent="1" target="IT1GfO3hqT7uD5s0gZy_-27" edge="1">
          <mxGeometry width="50" height="50" relative="1" as="geometry">
            <mxPoint x="146.5" y="510" as="sourcePoint" />
            <mxPoint x="146.12" y="500" as="targetPoint" />
          </mxGeometry>
        </mxCell>
        <mxCell id="IT1GfO3hqT7uD5s0gZy_-38" value="" style="endArrow=classic;html=1;rounded=0;entryX=0;entryY=0.5;entryDx=0;entryDy=0;entryPerimeter=0;" parent="1" target="IT1GfO3hqT7uD5s0gZy_-25" edge="1">
          <mxGeometry width="50" height="50" relative="1" as="geometry">
            <mxPoint x="-193.5" y="510" as="sourcePoint" />
            <mxPoint x="-53.5" y="510" as="targetPoint" />
          </mxGeometry>
        </mxCell>
        <mxCell id="IT1GfO3hqT7uD5s0gZy_-39" value="" style="endArrow=classic;html=1;rounded=0;entryX=1;entryY=0.5;entryDx=0;entryDy=0;entryPerimeter=0;" parent="1" target="IT1GfO3hqT7uD5s0gZy_-25" edge="1">
          <mxGeometry width="50" height="50" relative="1" as="geometry">
            <mxPoint x="146.5" y="510" as="sourcePoint" />
            <mxPoint x="26.5" y="510" as="targetPoint" />
          </mxGeometry>
        </mxCell>
        <mxCell id="IT1GfO3hqT7uD5s0gZy_-42" style="edgeStyle=orthogonalEdgeStyle;rounded=0;orthogonalLoop=1;jettySize=auto;html=1;entryX=0.5;entryY=0;entryDx=0;entryDy=0;" parent="1" source="IT1GfO3hqT7uD5s0gZy_-41" target="IT1GfO3hqT7uD5s0gZy_-16" edge="1">
          <mxGeometry relative="1" as="geometry" />
        </mxCell>
        <mxCell id="IT1GfO3hqT7uD5s0gZy_-41" value="Start" style="strokeWidth=2;html=1;shape=mxgraph.flowchart.start_1;whiteSpace=wrap;" parent="1" vertex="1">
          <mxGeometry x="-315" y="890" width="70" height="40" as="geometry" />
        </mxCell>
        <mxCell id="IT1GfO3hqT7uD5s0gZy_-47" value="Users Visit routes&lt;div&gt;index.html&lt;/div&gt;" style="rounded=1;whiteSpace=wrap;html=1;absoluteArcSize=1;arcSize=14;strokeWidth=2;" parent="1" vertex="1">
          <mxGeometry x="-78.5" y="90" width="110" height="40" as="geometry" />
        </mxCell>
        <mxCell id="IT1GfO3hqT7uD5s0gZy_-48" style="edgeStyle=orthogonalEdgeStyle;rounded=0;orthogonalLoop=1;jettySize=auto;html=1;entryX=0.5;entryY=0;entryDx=0;entryDy=0;entryPerimeter=0;" parent="1" source="IT1GfO3hqT7uD5s0gZy_-47" target="IT1GfO3hqT7uD5s0gZy_-5" edge="1">
          <mxGeometry relative="1" as="geometry" />
        </mxCell>
        <mxCell id="IT1GfO3hqT7uD5s0gZy_-50" value="Task management Flow" style="rounded=1;whiteSpace=wrap;html=1;absoluteArcSize=1;arcSize=14;strokeWidth=2;" parent="1" vertex="1">
          <mxGeometry x="-125" y="830" width="150" height="50" as="geometry" />
        </mxCell>
        <mxCell id="IT1GfO3hqT7uD5s0gZy_-52" value="Yes" style="text;html=1;align=center;verticalAlign=middle;whiteSpace=wrap;rounded=0;" parent="1" vertex="1">
          <mxGeometry x="120" y="1200" width="60" height="30" as="geometry" />
        </mxCell>
        <mxCell id="IT1GfO3hqT7uD5s0gZy_-53" style="edgeStyle=orthogonalEdgeStyle;rounded=0;orthogonalLoop=1;jettySize=auto;html=1;entryX=0.5;entryY=0;entryDx=0;entryDy=0;" parent="1" source="IT1GfO3hqT7uD5s0gZy_-19" target="IT1GfO3hqT7uD5s0gZy_-88" edge="1">
          <mxGeometry relative="1" as="geometry">
            <mxPoint x="135" y="1360" as="targetPoint" />
          </mxGeometry>
        </mxCell>
        <mxCell id="IT1GfO3hqT7uD5s0gZy_-54" value="Yes" style="text;html=1;align=center;verticalAlign=middle;whiteSpace=wrap;rounded=0;" parent="1" vertex="1">
          <mxGeometry x="130" y="1320" width="60" height="30" as="geometry" />
        </mxCell>
        <mxCell id="IT1GfO3hqT7uD5s0gZy_-57" value="No" style="text;html=1;align=center;verticalAlign=middle;whiteSpace=wrap;rounded=0;" parent="1" vertex="1">
          <mxGeometry x="-30" y="1250" width="60" height="30" as="geometry" />
        </mxCell>
        <mxCell id="IT1GfO3hqT7uD5s0gZy_-87" style="edgeStyle=orthogonalEdgeStyle;rounded=0;orthogonalLoop=1;jettySize=auto;html=1;exitX=0.5;exitY=0;exitDx=0;exitDy=0;exitPerimeter=0;entryX=0;entryY=0.5;entryDx=0;entryDy=0;" parent="1" source="IT1GfO3hqT7uD5s0gZy_-65" target="IT1GfO3hqT7uD5s0gZy_-14" edge="1">
          <mxGeometry relative="1" as="geometry">
            <mxPoint x="30" y="1080" as="targetPoint" />
            <Array as="points">
              <mxPoint x="-120" y="1095" />
            </Array>
          </mxGeometry>
        </mxCell>
        <mxCell id="IT1GfO3hqT7uD5s0gZy_-65" value="Please filled out [missing input]" style="strokeWidth=2;html=1;shape=mxgraph.flowchart.display;whiteSpace=wrap;" parent="1" vertex="1">
          <mxGeometry x="-180" y="1245" width="120" height="60" as="geometry" />
        </mxCell>
        <mxCell id="IT1GfO3hqT7uD5s0gZy_-86" style="edgeStyle=orthogonalEdgeStyle;rounded=0;orthogonalLoop=1;jettySize=auto;html=1;entryX=1;entryY=0.5;entryDx=0;entryDy=0;entryPerimeter=0;" parent="1" source="IT1GfO3hqT7uD5s0gZy_-19" target="IT1GfO3hqT7uD5s0gZy_-65" edge="1">
          <mxGeometry relative="1" as="geometry" />
        </mxCell>
        <mxCell id="IT1GfO3hqT7uD5s0gZy_-129" style="edgeStyle=orthogonalEdgeStyle;rounded=0;orthogonalLoop=1;jettySize=auto;html=1;" parent="1" source="IT1GfO3hqT7uD5s0gZy_-88" target="IT1GfO3hqT7uD5s0gZy_-90" edge="1">
          <mxGeometry relative="1" as="geometry" />
        </mxCell>
        <mxCell id="IT1GfO3hqT7uD5s0gZy_-88" value="Task counter += 1&lt;div&gt;Task counter = id&lt;/div&gt;" style="rounded=1;whiteSpace=wrap;html=1;absoluteArcSize=1;arcSize=14;strokeWidth=2;" parent="1" vertex="1">
          <mxGeometry x="78.75" y="1360" width="112.5" height="50" as="geometry" />
        </mxCell>
        <mxCell id="IT1GfO3hqT7uD5s0gZy_-130" style="edgeStyle=orthogonalEdgeStyle;rounded=0;orthogonalLoop=1;jettySize=auto;html=1;" parent="1" source="IT1GfO3hqT7uD5s0gZy_-90" target="IT1GfO3hqT7uD5s0gZy_-92" edge="1">
          <mxGeometry relative="1" as="geometry" />
        </mxCell>
        <mxCell id="IT1GfO3hqT7uD5s0gZy_-90" value="Append task To task list" style="rounded=1;whiteSpace=wrap;html=1;absoluteArcSize=1;arcSize=14;strokeWidth=2;" parent="1" vertex="1">
          <mxGeometry x="260" y="1370" width="145" height="30" as="geometry" />
        </mxCell>
        <mxCell id="IT1GfO3hqT7uD5s0gZy_-92" value="Sort task by Due date&lt;div&gt;Ignore complete task&lt;/div&gt;&lt;div&gt;[Insertion sort]&lt;/div&gt;" style="rounded=1;whiteSpace=wrap;html=1;absoluteArcSize=1;arcSize=14;strokeWidth=2;" parent="1" vertex="1">
          <mxGeometry x="260" y="1440" width="145" height="60" as="geometry" />
        </mxCell>
        <mxCell id="IT1GfO3hqT7uD5s0gZy_-97" style="edgeStyle=orthogonalEdgeStyle;rounded=0;orthogonalLoop=1;jettySize=auto;html=1;entryX=0.5;entryY=0;entryDx=0;entryDy=0;" parent="1" source="IT1GfO3hqT7uD5s0gZy_-94" target="IT1GfO3hqT7uD5s0gZy_-96" edge="1">
          <mxGeometry relative="1" as="geometry" />
        </mxCell>
        <mxCell id="IT1GfO3hqT7uD5s0gZy_-94" value="sorted Task list" style="strokeWidth=2;html=1;shape=mxgraph.flowchart.display;whiteSpace=wrap;" parent="1" vertex="1">
          <mxGeometry x="90" y="1450" width="110" height="40" as="geometry" />
        </mxCell>
        <mxCell id="IT1GfO3hqT7uD5s0gZy_-107" style="edgeStyle=orthogonalEdgeStyle;rounded=0;orthogonalLoop=1;jettySize=auto;html=1;entryX=0.5;entryY=0;entryDx=0;entryDy=0;" parent="1" source="IT1GfO3hqT7uD5s0gZy_-96" target="IT1GfO3hqT7uD5s0gZy_-100" edge="1">
          <mxGeometry relative="1" as="geometry">
            <Array as="points">
              <mxPoint x="145" y="1630" />
              <mxPoint x="-25" y="1630" />
            </Array>
          </mxGeometry>
        </mxCell>
        <mxCell id="IT1GfO3hqT7uD5s0gZy_-108" style="edgeStyle=orthogonalEdgeStyle;rounded=0;orthogonalLoop=1;jettySize=auto;html=1;entryX=0.5;entryY=0;entryDx=0;entryDy=0;" parent="1" source="IT1GfO3hqT7uD5s0gZy_-96" target="IT1GfO3hqT7uD5s0gZy_-99" edge="1">
          <mxGeometry relative="1" as="geometry" />
        </mxCell>
        <mxCell id="IT1GfO3hqT7uD5s0gZy_-109" style="edgeStyle=orthogonalEdgeStyle;rounded=0;orthogonalLoop=1;jettySize=auto;html=1;" parent="1" source="IT1GfO3hqT7uD5s0gZy_-96" target="IT1GfO3hqT7uD5s0gZy_-101" edge="1">
          <mxGeometry relative="1" as="geometry" />
        </mxCell>
        <mxCell id="IT1GfO3hqT7uD5s0gZy_-110" style="edgeStyle=orthogonalEdgeStyle;rounded=0;orthogonalLoop=1;jettySize=auto;html=1;entryX=0.5;entryY=0;entryDx=0;entryDy=0;" parent="1" source="IT1GfO3hqT7uD5s0gZy_-96" target="IT1GfO3hqT7uD5s0gZy_-102" edge="1">
          <mxGeometry relative="1" as="geometry">
            <Array as="points">
              <mxPoint x="145" y="1630" />
              <mxPoint x="320" y="1630" />
            </Array>
          </mxGeometry>
        </mxCell>
        <mxCell id="IT1GfO3hqT7uD5s0gZy_-96" value="Choose Operation" style="rounded=1;whiteSpace=wrap;html=1;absoluteArcSize=1;arcSize=14;strokeWidth=2;" parent="1" vertex="1">
          <mxGeometry x="90" y="1530" width="110" height="40" as="geometry" />
        </mxCell>
        <mxCell id="IT1GfO3hqT7uD5s0gZy_-121" style="edgeStyle=orthogonalEdgeStyle;rounded=0;orthogonalLoop=1;jettySize=auto;html=1;entryX=0.5;entryY=0;entryDx=0;entryDy=0;" parent="1" source="IT1GfO3hqT7uD5s0gZy_-99" target="IT1GfO3hqT7uD5s0gZy_-112" edge="1">
          <mxGeometry relative="1" as="geometry">
            <Array as="points">
              <mxPoint x="90" y="1760" />
              <mxPoint x="145" y="1760" />
            </Array>
          </mxGeometry>
        </mxCell>
        <mxCell id="IT1GfO3hqT7uD5s0gZy_-99" value="Delete" style="rounded=1;whiteSpace=wrap;html=1;absoluteArcSize=1;arcSize=14;strokeWidth=2;" parent="1" vertex="1">
          <mxGeometry x="50" y="1690" width="80" height="30" as="geometry" />
        </mxCell>
        <mxCell id="IT1GfO3hqT7uD5s0gZy_-120" style="edgeStyle=orthogonalEdgeStyle;rounded=0;orthogonalLoop=1;jettySize=auto;html=1;entryX=0.5;entryY=0;entryDx=0;entryDy=0;" parent="1" source="IT1GfO3hqT7uD5s0gZy_-100" target="IT1GfO3hqT7uD5s0gZy_-112" edge="1">
          <mxGeometry relative="1" as="geometry">
            <Array as="points">
              <mxPoint x="-25" y="1760" />
              <mxPoint x="145" y="1760" />
            </Array>
          </mxGeometry>
        </mxCell>
        <mxCell id="IT1GfO3hqT7uD5s0gZy_-100" value="Edit" style="rounded=1;whiteSpace=wrap;html=1;absoluteArcSize=1;arcSize=14;strokeWidth=2;" parent="1" vertex="1">
          <mxGeometry x="-50" y="1690" width="50" height="30" as="geometry" />
        </mxCell>
        <mxCell id="IT1GfO3hqT7uD5s0gZy_-122" style="edgeStyle=orthogonalEdgeStyle;rounded=0;orthogonalLoop=1;jettySize=auto;html=1;entryX=0.5;entryY=0;entryDx=0;entryDy=0;" parent="1" source="IT1GfO3hqT7uD5s0gZy_-101" target="IT1GfO3hqT7uD5s0gZy_-112" edge="1">
          <mxGeometry relative="1" as="geometry">
            <Array as="points">
              <mxPoint x="200" y="1760" />
              <mxPoint x="145" y="1760" />
            </Array>
          </mxGeometry>
        </mxCell>
        <mxCell id="IT1GfO3hqT7uD5s0gZy_-101" value="Complete" style="rounded=1;whiteSpace=wrap;html=1;absoluteArcSize=1;arcSize=14;strokeWidth=2;" parent="1" vertex="1">
          <mxGeometry x="160" y="1690" width="80" height="30" as="geometry" />
        </mxCell>
        <mxCell id="IT1GfO3hqT7uD5s0gZy_-123" style="edgeStyle=orthogonalEdgeStyle;rounded=0;orthogonalLoop=1;jettySize=auto;html=1;entryX=0.5;entryY=0;entryDx=0;entryDy=0;" parent="1" source="IT1GfO3hqT7uD5s0gZy_-102" target="IT1GfO3hqT7uD5s0gZy_-112" edge="1">
          <mxGeometry relative="1" as="geometry">
            <Array as="points">
              <mxPoint x="320" y="1760" />
              <mxPoint x="145" y="1760" />
            </Array>
          </mxGeometry>
        </mxCell>
        <mxCell id="IT1GfO3hqT7uD5s0gZy_-102" value="Sorted Task" style="rounded=1;whiteSpace=wrap;html=1;absoluteArcSize=1;arcSize=14;strokeWidth=2;" parent="1" vertex="1">
          <mxGeometry x="280" y="1690" width="80" height="30" as="geometry" />
        </mxCell>
        <mxCell id="IT1GfO3hqT7uD5s0gZy_-128" style="edgeStyle=orthogonalEdgeStyle;rounded=0;orthogonalLoop=1;jettySize=auto;html=1;" parent="1" source="IT1GfO3hqT7uD5s0gZy_-112" target="IT1GfO3hqT7uD5s0gZy_-127" edge="1">
          <mxGeometry relative="1" as="geometry" />
        </mxCell>
        <mxCell id="IT1GfO3hqT7uD5s0gZy_-112" value="" style="ellipse;whiteSpace=wrap;html=1;verticalAlign=top;" parent="1" vertex="1">
          <mxGeometry x="133.75" y="1790" width="22.5" height="20" as="geometry" />
        </mxCell>
        <mxCell id="IT1GfO3hqT7uD5s0gZy_-127" value="End" style="strokeWidth=2;html=1;shape=mxgraph.flowchart.start_1;whiteSpace=wrap;" parent="1" vertex="1">
          <mxGeometry x="117.5" y="1850" width="55" height="40" as="geometry" />
        </mxCell>
        <mxCell id="IT1GfO3hqT7uD5s0gZy_-131" style="edgeStyle=orthogonalEdgeStyle;rounded=0;orthogonalLoop=1;jettySize=auto;html=1;entryX=1;entryY=0.5;entryDx=0;entryDy=0;entryPerimeter=0;" parent="1" source="IT1GfO3hqT7uD5s0gZy_-92" target="IT1GfO3hqT7uD5s0gZy_-94" edge="1">
          <mxGeometry relative="1" as="geometry" />
        </mxCell>
        <mxCell id="klHNiH37RLpIYKjmGFhw-4" style="edgeStyle=orthogonalEdgeStyle;rounded=0;orthogonalLoop=1;jettySize=auto;html=1;entryX=1;entryY=0.5;entryDx=0;entryDy=0;" parent="1" source="klHNiH37RLpIYKjmGFhw-2" target="IT1GfO3hqT7uD5s0gZy_-47" edge="1">
          <mxGeometry relative="1" as="geometry">
            <mxPoint x="326.5" y="100" as="targetPoint" />
            <Array as="points">
              <mxPoint x="327.5" y="600" />
              <mxPoint x="327.5" y="110" />
            </Array>
          </mxGeometry>
        </mxCell>
        <mxCell id="klHNiH37RLpIYKjmGFhw-6" style="edgeStyle=orthogonalEdgeStyle;rounded=0;orthogonalLoop=1;jettySize=auto;html=1;" parent="1" source="klHNiH37RLpIYKjmGFhw-2" target="klHNiH37RLpIYKjmGFhw-5" edge="1">
          <mxGeometry relative="1" as="geometry" />
        </mxCell>
        <mxCell id="klHNiH37RLpIYKjmGFhw-2" value="User click Back to Home" style="rounded=1;whiteSpace=wrap;html=1;absoluteArcSize=1;arcSize=14;strokeWidth=2;" parent="1" vertex="1">
          <mxGeometry x="-97.25" y="580" width="146.25" height="40" as="geometry" />
        </mxCell>
        <mxCell id="klHNiH37RLpIYKjmGFhw-5" value="User click x&amp;nbsp;&lt;div&gt;Window close&lt;/div&gt;" style="rounded=1;whiteSpace=wrap;html=1;absoluteArcSize=1;arcSize=14;strokeWidth=2;" parent="1" vertex="1">
          <mxGeometry x="-74.12" y="660" width="100" height="50" as="geometry" />
        </mxCell>
        <mxCell id="klHNiH37RLpIYKjmGFhw-7" style="edgeStyle=orthogonalEdgeStyle;rounded=0;orthogonalLoop=1;jettySize=auto;html=1;entryX=0.5;entryY=0;entryDx=0;entryDy=0;entryPerimeter=0;" parent="1" source="klHNiH37RLpIYKjmGFhw-5" target="IT1GfO3hqT7uD5s0gZy_-28" edge="1">
          <mxGeometry relative="1" as="geometry" />
        </mxCell>
        <mxCell id="klHNiH37RLpIYKjmGFhw-8" value="Yes" style="text;html=1;align=center;verticalAlign=middle;whiteSpace=wrap;rounded=0;" parent="1" vertex="1">
          <mxGeometry x="96.5" y="570" width="40" height="30" as="geometry" />
        </mxCell>
        <mxCell id="klHNiH37RLpIYKjmGFhw-9" value="No" style="text;html=1;align=center;verticalAlign=middle;whiteSpace=wrap;rounded=0;" parent="1" vertex="1">
          <mxGeometry x="-18.5" y="620" width="40" height="30" as="geometry" />
        </mxCell>
        <mxCell id="sfX5WPeCSxPqU9nA5pDY-1" value="Task" style="text;html=1;align=center;verticalAlign=middle;whiteSpace=wrap;rounded=0;" parent="1" vertex="1">
          <mxGeometry x="-173.5" y="290" width="60" height="30" as="geometry" />
        </mxCell>
        <mxCell id="sfX5WPeCSxPqU9nA5pDY-3" value="Note" style="text;html=1;align=center;verticalAlign=middle;whiteSpace=wrap;rounded=0;" parent="1" vertex="1">
          <mxGeometry x="76.5" y="290" width="60" height="30" as="geometry" />
        </mxCell>
      </root>
    </mxGraphModel>
  </diagram>
</mxfile>
